HIERARCHY
ROOT Hips
{
	OFFSET 0.000000 100.481300 0.000000
	CHANNELS 6 Xposition Yposition Zposition Xrotation Yrotation Zrotation 
	JOINT Spine
	{
		OFFSET -0.279200 12.230698 -2.892100
		CHANNELS 3 Xrotation Yrotation Zrotation
		JOINT Spine1
		{
			OFFSET -0.232667 10.192268 -1.242267
			CHANNELS 3 Xrotation Yrotation Zrotation
			JOINT Spine1_split
			{
				OFFSET -0.232667 10.192268 -1.242267
				CHANNELS 3 Xrotation Yrotation Zrotation
				JOINT Spine2
				{
					OFFSET -0.232667 10.192268 -1.242267
					CHANNELS 3 Xrotation Yrotation Zrotation
					JOINT Neck
					{
						OFFSET -0.418800 17.814194 8.416900
						CHANNELS 3 Xrotation Yrotation Zrotation
						JOINT Head
						{
							OFFSET 0.000000 7.031097 3.806800
							CHANNELS 3 Xrotation Yrotation Zrotation
							JOINT HeadTop_End
							{
								OFFSET 0.000000 24.646606 12.978600
								CHANNELS 3 Xrotation Yrotation Zrotation
								End Site
								{
									OFFSET 0.000000 0.000000 0.000000
								}
							}
						}
					}
					JOINT LeftShoulder
					{
						OFFSET 8.476499 7.247704 -3.868750
						CHANNELS 3 Xrotation Yrotation Zrotation
						JOINT LeftShoulder_split
						{
							OFFSET 8.476499 7.247704 -3.868750
							CHANNELS 3 Xrotation Yrotation Zrotation
							JOINT LeftArm
							{
								OFFSET 9.308998 -2.777710 0.208600
								CHANNELS 3 Xrotation Yrotation Zrotation
								JOINT LeftForeArm
								{
									OFFSET 29.972298 0.000000 0.000000
									CHANNELS 3 Xrotation Yrotation Zrotation
									JOINT LeftHand
									{
										OFFSET 26.026505 0.000000 0.000000
										CHANNELS 3 Xrotation Yrotation Zrotation
										JOINT LeftHandThumb1
										{
											OFFSET 12.240501 -7.147949 9.207150
											CHANNELS 3 Xrotation Yrotation Zrotation
											JOINT LeftHandThumb2
											{
												OFFSET 4.138618 -2.389435 2.389433
												CHANNELS 3 Xrotation Yrotation Zrotation
												JOINT LeftHandThumb3
												{
													OFFSET 2.726913 -1.574387 1.574386
													CHANNELS 3 Xrotation Yrotation Zrotation
													JOINT LeftHandThumb4
													{
														OFFSET 3.941010 -2.275345 2.275342
														CHANNELS 3 Xrotation Yrotation Zrotation
														End Site
														{
															OFFSET 0.000000 0.000000 0.000000
														}
													}
												}
											}
										}
										JOINT LeftHandIndex1
										{
											OFFSET 24.424698 -1.985611 5.953459
											CHANNELS 3 Xrotation Yrotation Zrotation
											JOINT LeftHandIndex2
											{
												OFFSET 6.426697 0.000000 0.000000
												CHANNELS 3 Xrotation Yrotation Zrotation
												JOINT LeftHandIndex3
												{
													OFFSET 5.337898 0.000000 0.000000
													CHANNELS 3 Xrotation Yrotation Zrotation
													JOINT LeftHandIndex4
													{
														OFFSET 4.409401 0.000000 0.000000
														CHANNELS 3 Xrotation Yrotation Zrotation
														End Site
														{
															OFFSET 0.000000 0.000000 0.000000
														}
													}
												}
											}
										}
										JOINT LeftHandMiddle1
										{
											OFFSET 23.810104 0.000000 0.000000
											CHANNELS 3 Xrotation Yrotation Zrotation
											JOINT LeftHandMiddle2
											{
												OFFSET 7.176498 0.000000 0.000000
												CHANNELS 3 Xrotation Yrotation Zrotation
												JOINT LeftHandMiddle3
												{
													OFFSET 6.774902 0.000000 0.000000
													CHANNELS 3 Xrotation Yrotation Zrotation
													JOINT LeftHandMiddle4
													{
														OFFSET 5.403328 0.000000 0.000000
														CHANNELS 3 Xrotation Yrotation Zrotation
														End Site
														{
															OFFSET 0.000000 0.000000 0.000000
														}
													}
												}
											}
										}
										JOINT LeftHandRing1
										{
											OFFSET 22.908401 -0.839279 -6.020567
											CHANNELS 3 Xrotation Yrotation Zrotation
											JOINT LeftHandRing2
											{
												OFFSET 6.337502 0.000000 0.000000
												CHANNELS 3 Xrotation Yrotation Zrotation
												JOINT LeftHandRing3
												{
													OFFSET 5.779297 0.000000 0.000000
													CHANNELS 3 Xrotation Yrotation Zrotation
													JOINT LeftHandRing4
													{
														OFFSET 4.965698 0.000000 0.000000
														CHANNELS 3 Xrotation Yrotation Zrotation
														End Site
														{
															OFFSET 0.000000 0.000000 0.000000
														}
													}
												}
											}
										}
										JOINT LeftHandPinky1
										{
											OFFSET 20.037003 -1.530319 -10.950146
											CHANNELS 3 Xrotation Yrotation Zrotation
											JOINT LeftHandPinky2
											{
												OFFSET 5.254700 0.000000 0.000000
												CHANNELS 3 Xrotation Yrotation Zrotation
												JOINT LeftHandPinky3
												{
													OFFSET 4.810204 0.000000 0.000000
													CHANNELS 3 Xrotation Yrotation Zrotation
													JOINT LeftHandPinky4
													{
														OFFSET 3.647202 0.000000 0.000000
														CHANNELS 3 Xrotation Yrotation Zrotation
														End Site
														{
															OFFSET 0.000000 0.000000 0.000000
														}
													}
												}
											}
										}
									}
								}
							}
						}
					}
					JOINT RightShoulder
					{
						OFFSET -7.570500 7.247704 -3.868750
						CHANNELS 3 Xrotation Yrotation Zrotation
						JOINT RightShoulder_split
						{
							OFFSET -7.570500 7.247704 -3.868750
							CHANNELS 3 Xrotation Yrotation Zrotation
							JOINT RightArm
							{
								OFFSET -9.308998 -2.777710 0.208500
								CHANNELS 3 Xrotation Yrotation Zrotation
								JOINT RightForeArm
								{
									OFFSET -29.972300 0.000000 0.000000
									CHANNELS 3 Xrotation Yrotation Zrotation
									JOINT RightHand
									{
										OFFSET -26.026505 0.000000 0.000000
										CHANNELS 3 Xrotation Yrotation Zrotation
										JOINT RightHandThumb1
										{
											OFFSET -12.240601 -7.148026 9.207092
											CHANNELS 3 Xrotation Yrotation Zrotation
											JOINT RightHandThumb2
											{
												OFFSET -4.138618 -2.389435 2.389433
												CHANNELS 3 Xrotation Yrotation Zrotation
												JOINT RightHandThumb3
												{
													OFFSET -2.726974 -1.574417 1.574421
													CHANNELS 3 Xrotation Yrotation Zrotation
													JOINT RightHandThumb4
													{
														OFFSET -3.941010 -2.275345 2.275343
														CHANNELS 3 Xrotation Yrotation Zrotation
														End Site
														{
															OFFSET 0.000000 0.000000 0.000000
														}
													}
												}
											}
										}
										JOINT RightHandIndex1
										{
											OFFSET -24.424698 -1.985657 5.953444
											CHANNELS 3 Xrotation Yrotation Zrotation
											JOINT RightHandIndex2
											{
												OFFSET -6.426697 0.000000 0.000000
												CHANNELS 3 Xrotation Yrotation Zrotation
												JOINT RightHandIndex3
												{
													OFFSET -5.337898 0.000000 0.000000
													CHANNELS 3 Xrotation Yrotation Zrotation
													JOINT RightHandIndex4
													{
														OFFSET -4.409401 0.000000 0.000000
														CHANNELS 3 Xrotation Yrotation Zrotation
														End Site
														{
															OFFSET 0.000000 0.000000 0.000000
														}
													}
												}
											}
										}
										JOINT RightHandMiddle1
										{
											OFFSET -23.810097 0.000000 0.000000
											CHANNELS 3 Xrotation Yrotation Zrotation
											JOINT RightHandMiddle2
											{
												OFFSET -7.176498 0.000000 0.000000
												CHANNELS 3 Xrotation Yrotation Zrotation
												JOINT RightHandMiddle3
												{
													OFFSET -6.774902 0.000000 0.000000
													CHANNELS 3 Xrotation Yrotation Zrotation
													JOINT RightHandMiddle4
													{
														OFFSET -5.403328 0.000000 0.000000
														CHANNELS 3 Xrotation Yrotation Zrotation
														End Site
														{
															OFFSET 0.000000 0.000000 0.000000
														}
													}
												}
											}
										}
										JOINT RightHandRing1
										{
											OFFSET -22.908302 -0.839325 -6.020576
											CHANNELS 3 Xrotation Yrotation Zrotation
											JOINT RightHandRing2
											{
												OFFSET -6.337502 0.000000 0.000000
												CHANNELS 3 Xrotation Yrotation Zrotation
												JOINT RightHandRing3
												{
													OFFSET -5.779297 0.000000 0.000000
													CHANNELS 3 Xrotation Yrotation Zrotation
													JOINT RightHandRing4
													{
														OFFSET -4.965698 0.000000 0.000000
														CHANNELS 3 Xrotation Yrotation Zrotation
														End Site
														{
															OFFSET 0.000000 0.000000 0.000000
														}
													}
												}
											}
										}
										JOINT RightHandPinky1
										{
											OFFSET -20.037003 -1.530334 -10.950259
											CHANNELS 3 Xrotation Yrotation Zrotation
											JOINT RightHandPinky2
											{
												OFFSET -5.254700 0.000000 0.000000
												CHANNELS 3 Xrotation Yrotation Zrotation
												JOINT RightHandPinky3
												{
													OFFSET -4.810204 0.000000 0.000000
													CHANNELS 3 Xrotation Yrotation Zrotation
													JOINT RightHandPinky4
													{
														OFFSET -3.647202 0.000000 0.000000
														CHANNELS 3 Xrotation Yrotation Zrotation
														End Site
														{
															OFFSET 0.000000 0.000000 0.000000
														}
													}
												}
											}
										}
									}
								}
							}
						}
					}
				}
			}
		}
	}
	JOINT LeftUpLeg
	{
		OFFSET 15.427100 -6.655098 0.678600
		CHANNELS 3 Xrotation Yrotation Zrotation
		JOINT LeftLeg
		{
			OFFSET 4.081073 -39.591068 13.024000
			CHANNELS 3 Xrotation Yrotation Zrotation
			JOINT LeftFoot
			{
				OFFSET -4.081074 -37.707932 -15.979700
				CHANNELS 3 Xrotation Yrotation Zrotation
				JOINT LeftToeBase
				{
					OFFSET 5.346399 -15.068900 20.645000
					CHANNELS 3 Xrotation Yrotation Zrotation
					JOINT LeftToe_End
					{
						OFFSET 2.754700 0.931300 11.300900
						CHANNELS 3 Xrotation Yrotation Zrotation
						End Site
						{
							OFFSET 0.000000 0.000000 0.000000
						}
					}
				}
			}
		}
	}
	JOINT RightUpLeg
	{
		OFFSET -15.569500 -6.655098 0.678600
		CHANNELS 3 Xrotation Yrotation Zrotation
		JOINT RightLeg
		{
			OFFSET -4.081825 -39.591045 13.023800
			CHANNELS 3 Xrotation Yrotation Zrotation
			JOINT RightFoot
			{
				OFFSET 4.081824 -37.707954 -15.979600
				CHANNELS 3 Xrotation Yrotation Zrotation
				JOINT RightToeBase
				{
					OFFSET -5.346400 -15.068900 20.645000
					CHANNELS 3 Xrotation Yrotation Zrotation
					JOINT RightToe_End
					{
						OFFSET -2.754700 0.931300 11.300900
						CHANNELS 3 Xrotation Yrotation Zrotation
						End Site
						{
							OFFSET 0.000000 0.000000 0.000000
						}
					}
				}
			}
		}
	}
}
MOTION
Frames: 4
Frame Time: 0.016667
-6.604885 65.317528 -0.698825 -0.079297 -8.012220 -16.684409 5.587215 1.465590 0.536644 4.651100 0.654910 1.633864 0.000000 0.000000 0.000000 4.657232 0.491970 1.673783 0.396505 1.761072 0.948531 -15.762641 26.254655 5.119160 0.000000 -0.000000 -0.000000 0.472291 0.823557 -6.563490 0.000000 0.000000 0.000000 41.287039 -17.715622 -58.148706 0.000008 -58.979838 0.000010 -18.820673 -33.533493 26.792954 5.358057 -0.141370 9.666155 3.545755 27.155808 3.560576 3.579366 15.544281 0.630961 0.000000 -0.000000 -0.000000 -1.578835 0.825930 -19.703497 0.405079 2.871000 -21.069214 0.009629 -0.615548 3.987656 -0.000003 -0.000003 -0.000001 0.409500 7.162245 -25.647936 0.416499 2.993239 -22.185336 0.003743 -0.023822 3.007755 0.000000 0.000003 -0.000001 2.386870 10.570847 -32.882361 0.471664 2.115277 -18.421976 0.064949 0.187420 -1.985612 -0.000001 0.000002 0.000002 2.967943 13.388240 -36.938899 0.139964 1.667047 -18.441897 -0.013612 0.754510 1.032448 -0.000001 -0.000001 -0.000001 0.625967 0.265420 11.021710 0.000000 0.000000 0.000000 -6.297842 23.802326 54.826905 0.000321 96.646958 -0.000328 -19.103262 24.520625 -3.410967 0.789357 -8.211551 -4.825415 0.020121 -13.361241 -9.371023 3.749492 -15.817813 -0.052407 0.000002 -0.000001 0.000001 -1.070489 -2.247362 17.231256 0.405443 -2.871950 21.079311 -0.189688 0.296868 8.932108 0.000000 0.000000 -0.000000 0.438992 -7.256203 26.595143 0.417441 -2.995670 22.211553 0.081191 -1.101471 9.870306 -0.000001 -0.000001 -0.000001 2.698247 -11.184229 32.166076 0.472402 -2.116943 18.440365 -0.173563 0.866918 9.714781 -0.000001 -0.000001 0.000000 4.305372 -16.260312 34.920981 0.139782 -1.666348 18.434706 -0.527461 1.126973 9.842076 -0.000000 0.000001 0.000001 -61.969152 8.342677 7.782918 103.513218 8.604889 -0.655587 8.036775 -0.715437 18.659416 -30.309453 -2.790987 5.045322 -0.000000 0.000001 -0.000001 -28.489781 1.887146 0.858733 65.041501 8.752910 0.404197 -38.793863 0.007159 7.480765 -5.746952 0.000000 -0.000003 -0.000000 0.000000 0.000000 
-6.065495 65.616806 8.665662 -0.315880 -6.918751 -16.260882 5.514910 3.810020 0.539747 4.641766 1.992368 1.349659 0.000000 0.000000 0.000000 4.668626 1.846768 1.438064 0.764417 1.195515 1.133491 -15.802203 22.159423 4.754593 -0.000000 0.000001 0.000000 0.417700 0.977522 -5.230730 0.000000 0.000000 0.000000 51.088107 -19.833360 -55.708577 0.000012 -63.791563 0.000032 -19.494466 -33.921366 26.202668 5.358058 -0.141370 9.666153 3.545756 27.155808 3.560578 3.579366 15.544285 0.630959 0.000000 -0.000000 -0.000000 -1.578835 0.825931 -19.703492 0.405080 2.870991 -21.069216 0.009628 -0.615546 3.987654 0.000002 0.000000 -0.000004 0.409500 7.162242 -25.647936 0.416500 2.993247 -22.185334 0.003734 -0.023818 3.007758 -0.000002 0.000001 0.000001 2.386870 10.570845 -32.882358 0.471662 2.115280 -18.421973 0.064946 0.187422 -1.985606 -0.000001 0.000001 0.000002 2.967943 13.388234 -36.938899 0.139967 1.667047 -18.441898 -0.013609 0.754510 1.032452 -0.000001 0.000000 -0.000002 0.552490 2.485358 8.941590 0.000000 0.000000 0.000000 -15.548120 21.166654 54.791518 -0.000018 101.079143 -0.000001 -18.201858 23.757826 -3.922297 0.789354 -8.211556 -4.825411 0.020120 -13.361240 -9.371026 3.749490 -15.817810 -0.052406 -0.000002 0.000000 0.000000 -1.070492 -2.247365 17.231258 0.405440 -2.871955 21.079311 -0.189693 0.296866 8.932106 -0.000002 0.000000 -0.000000 0.438987 -7.256206 26.595148 0.417439 -2.995671 22.211550 0.081190 -1.101470 9.870310 -0.000000 0.000001 0.000002 2.698244 -11.184233 32.166079 0.472404 -2.116944 18.440365 -0.173564 0.866919 9.714778 -0.000000 -0.000000 0.000000 4.305370 -16.260312 34.920981 0.139784 -1.666348 18.434704 -0.527460 1.126974 9.842076 0.000000 0.000000 -0.000000 -72.112557 7.324080 7.090521 97.319001 8.687044 -0.417143 11.237903 0.299754 18.516458 -23.684758 -1.071034 3.077287 0.000001 -0.000000 0.000000 -16.480135 0.882257 -3.266681 61.943143 8.763812 1.420855 -44.696246 2.285945 8.536673 -9.933635 0.000003 -0.000004 -0.000000 -0.000000 -0.000000 
-5.423286 66.302689 18.130865 -0.251816 -5.336230 -15.475542 5.206866 6.379465 0.046639 4.448703 3.149789 1.037705 0.000000 0.000000 0.000000 4.488400 3.024020 1.166606 1.152614 0.559718 1.495090 -15.349721 17.467125 4.353243 -0.000000 -0.000000 0.000000 0.360098 0.455521 -3.526979 0.000000 0.000000 0.000000 59.840407 -20.330449 -53.492915 0.000008 -68.582162 -0.000017 -20.234651 -34.438012 25.571421 5.358058 -0.141371 9.666154 3.545754 27.155808 3.560578 3.579366 15.544281 0.630960 0.000000 -0.000000 0.000000 -1.578835 0.825931 -19.703494 0.405077 2.870993 -21.069213 0.009631 -0.615546 3.987659 0.000001 0.000000 0.000001 0.409500 7.162239 -25.647939 0.416498 2.993244 -22.185337 0.003738 -0.023819 3.007760 0.000000 -0.000000 -0.000003 2.386870 10.570847 -32.882361 0.471664 2.115278 -18.421980 0.064948 0.187420 -1.985606 -0.000001 -0.000001 0.000000 2.967942 13.388238 -36.938899 0.139964 1.667045 -18.441900 -0.013608 0.754508 1.032453 -0.000000 0.000000 -0.000001 0.572468 3.368494 7.197855 0.000000 0.000000 0.000000 -23.014563 20.036261 54.517221 -0.000093 105.501738 0.000074 -15.360225 23.077285 -5.389251 0.789356 -8.211552 -4.825414 0.020124 -13.361237 -9.371026 3.749490 -15.817810 -0.052410 -0.000001 0.000000 0.000001 -1.070491 -2.247365 17.231252 0.405443 -2.871953 21.079311 -0.189688 0.296868 8.932107 0.000001 0.000000 -0.000001 0.438989 -7.256205 26.595145 0.417441 -2.995669 22.211548 0.081189 -1.101471 9.870308 0.000001 -0.000000 -0.000000 2.698245 -11.184230 32.166083 0.472400 -2.116942 18.440368 -0.173569 0.866919 9.714779 0.000001 0.000000 -0.000000 4.305370 -16.260312 34.920981 0.139778 -1.666351 18.434708 -0.527467 1.126974 9.842075 -0.000003 -0.000000 -0.000000 -78.056153 6.444828 5.083162 88.634327 8.863673 -0.272841 11.546034 1.714387 17.606042 -6.757493 -0.000003 0.001483 -0.000002 0.000000 -0.000000 -5.164625 -0.342499 -7.141970 56.911192 9.173346 2.451181 -45.601089 3.182539 10.997030 -17.492847 -0.000003 0.000001 0.000001 -0.000000 0.000000 
-4.631805 67.411644 27.577051 -0.059064 -3.531432 -14.650868 4.825924 8.944160 -0.615866 4.164441 4.140926 0.752281 0.000000 0.000000 0.000000 4.210766 4.034416 0.914153 1.524938 -0.077953 1.938765 -14.628455 12.752698 3.958221 -0.000000 -0.000000 -0.000000 0.346230 -0.354007 -1.729429 0.000000 0.000000 0.000000 67.332490 -19.844169 -52.035144 0.000056 -73.056216 0.000066 -21.063523 -34.966559 24.978864 5.358058 -0.141375 9.666155 3.545754 27.155808 3.560574 3.579366 15.544283 0.630960 0.000000 -0.000001 -0.000001 -1.578835 0.825929 -19.703497 0.405077 2.870989 -21.069213 0.009630 -0.615546 3.987653 -0.000001 0.000001 -0.000002 0.409499 7.162242 -25.647934 0.416499 2.993240 -22.185334 0.003738 -0.023819 3.007765 0.000000 0.000001 0.000003 2.386870 10.570844 -32.882365 0.471664 2.115278 -18.421982 0.064944 0.187421 -1.985605 0.000001 0.000002 0.000002 2.967943 13.388236 -36.938903 0.139964 1.667047 -18.441900 -0.013608 0.754509 1.032450 0.000001 -0.000001 -0.000004 0.591741 3.455523 5.803170 0.000000 0.000000 0.000000 -28.885850 20.146538 54.610108 -0.000013 109.781310 -0.000005 -11.356436 22.070670 -7.051921 0.789351 -8.211554 -4.825414 0.020121 -13.361242 -9.371025 3.749490 -15.817813 -0.052409 -0.000002 -0.000001 -0.000001 -1.070491 -2.247361 17.231252 0.405441 -2.871953 21.079311 -0.189694 0.296867 8.932106 -0.000000 -0.000000 0.000001 0.438988 -7.256201 26.595143 0.417439 -2.995670 22.211553 0.081190 -1.101470 9.870310 0.000000 -0.000000 -0.000000 2.698243 -11.184230 32.166072 0.472398 -2.116942 18.440370 -0.173565 0.866919 9.714780 -0.000000 0.000001 -0.000001 4.305369 -16.260310 34.920981 0.139784 -1.666350 18.434704 -0.527460 1.126974 9.842074 0.000000 -0.000001 0.000001 -80.293074 5.717178 2.509584 78.053551 9.278050 -0.114293 9.316995 3.096573 16.491936 -7.089095 0.000007 -0.000004 0.000000 -0.000000 0.000000 4.381377 -1.708417 -10.104288 51.156256 9.899193 3.104604 -40.462690 3.040033 14.291624 -29.977810 0.000001 -0.000000 0.000001 -0.000000 0.000000 
